<svg width="317" height="123" viewBox="0 0 317 123" fill="none" xmlns="http://www.w3.org/2000/svg">
<path d="M51.984 62H49.744L40.656 43.696H15.184L6.288 62H4.048L27.984 12.848L51.984 62ZM39.888 41.84L27.856 17.456L16.08 41.84H39.888ZM60.0145 33.2H62.0625V39.6C63.0012 37.4667 64.6012 35.76 66.8625 34.48C69.1238 33.1573 71.6198 32.496 74.3505 32.496C77.8918 32.496 80.6865 33.6267 82.7345 35.888C84.8252 38.1067 85.8705 41.2213 85.8705 45.232V62H83.8225V45.232C83.8225 41.776 82.9692 39.088 81.2625 37.168C79.5985 35.248 77.2518 34.288 74.2225 34.288C72.0038 34.288 69.9558 34.8 68.0785 35.824C66.2438 36.8053 64.7718 38.1707 63.6625 39.92C62.5958 41.6693 62.0625 43.6533 62.0625 45.872V62H60.0145V33.2ZM105.6 62.704C102.827 62.704 100.267 62.0213 97.92 60.656C95.616 59.2907 93.7813 57.456 92.416 55.152C91.0507 52.848 90.368 50.3307 90.368 47.6C90.368 44.8693 91.0507 42.352 92.416 40.048C93.7813 37.744 95.616 35.9093 97.92 34.544C100.267 33.1787 102.827 32.496 105.6 32.496C108.288 32.496 110.848 33.2213 113.28 34.672C115.712 36.08 117.504 37.936 118.656 40.24V14H120.704V62H118.656V55.024C117.376 57.328 115.52 59.184 113.088 60.592C110.699 62 108.203 62.704 105.6 62.704ZM105.536 60.912C107.883 60.912 110.059 60.3147 112.064 59.12C114.112 57.8827 115.733 56.2613 116.928 54.256C118.165 52.208 118.784 50.0107 118.784 47.664C118.784 45.3173 118.165 43.12 116.928 41.072C115.733 39.024 114.112 37.3813 112.064 36.144C110.059 34.9067 107.883 34.288 105.536 34.288C103.189 34.288 101.013 34.9067 99.008 36.144C97.0027 37.3387 95.4027 38.96 94.208 41.008C93.0133 43.056 92.416 45.2533 92.416 47.6C92.416 49.9893 92.992 52.208 94.144 54.256C95.3387 56.2613 96.9387 57.8827 98.944 59.12C100.992 60.3147 103.189 60.912 105.536 60.912ZM128.782 33.2H130.83V39.856C131.683 37.7653 132.921 36.1227 134.542 34.928C136.206 33.7333 138.083 33.136 140.174 33.136C141.497 33.136 142.841 33.4133 144.206 33.968V36.336C142.969 35.3973 141.582 34.928 140.046 34.928C138.51 34.928 137.017 35.3973 135.566 36.336C134.158 37.2747 133.006 38.5333 132.11 40.112C131.257 41.6907 130.83 43.376 130.83 45.168V62H128.782V33.2ZM161.424 60.976C163.643 60.976 165.755 60.4 167.76 59.248C169.766 58.096 171.43 56.5173 172.752 54.512V57.776C171.174 59.5253 169.446 60.8053 167.568 61.616C165.691 62.384 163.558 62.768 161.168 62.768C158.523 62.768 156.027 62.064 153.68 60.656C151.376 59.248 149.52 57.3707 148.112 55.024C146.747 52.6773 146.064 50.1813 146.064 47.536C146.064 44.6773 146.747 42.1173 148.112 39.856C149.478 37.552 151.334 35.76 153.68 34.48C156.07 33.2 158.715 32.56 161.616 32.56C166.054 32.56 169.83 34.3093 172.944 37.808L152.848 57.648C154.256 58.8 155.622 59.6533 156.944 60.208C158.267 60.72 159.76 60.976 161.424 60.976ZM148.112 47.344C148.112 50.8853 149.286 53.9147 151.632 56.432L170.384 37.808C168.976 36.5707 167.611 35.696 166.288 35.184C164.966 34.6293 163.387 34.352 161.552 34.352C158.95 34.352 156.624 34.928 154.576 36.08C152.571 37.1893 150.992 38.7253 149.84 40.688C148.688 42.6507 148.112 44.8693 148.112 47.344ZM192.978 62.704C190.247 62.704 187.709 62.0213 185.362 60.656C183.015 59.2907 181.159 57.456 179.794 55.152C178.429 52.8053 177.746 50.288 177.746 47.6C177.746 44.912 178.429 42.416 179.794 40.112C181.159 37.7653 183.015 35.9093 185.362 34.544C187.709 33.1787 190.247 32.496 192.978 32.496C195.751 32.496 198.375 33.2427 200.85 34.736C203.325 36.1867 205.053 38.0853 206.034 40.432V33.2H208.082V62H206.034V54.832C204.882 57.2213 203.09 59.1413 200.658 60.592C198.269 62 195.709 62.704 192.978 62.704ZM193.106 60.912C195.453 60.912 197.629 60.3147 199.634 59.12C201.639 57.8827 203.218 56.2613 204.37 54.256C205.565 52.208 206.162 49.9893 206.162 47.6C206.162 45.2533 205.565 43.056 204.37 41.008C203.175 38.96 201.575 37.3387 199.57 36.144C197.565 34.9067 195.389 34.288 193.042 34.288C190.695 34.288 188.498 34.9067 186.45 36.144C184.445 37.3813 182.823 39.024 181.586 41.072C180.391 43.12 179.794 45.3173 179.794 47.664C179.794 50.0107 180.391 52.208 181.586 54.256C182.823 56.2613 184.466 57.8827 186.514 59.12C188.562 60.3147 190.759 60.912 193.106 60.912ZM223.2 62.704C221.152 62.704 219.339 62.3627 217.76 61.68C216.181 60.9547 215.051 60.0373 214.368 58.928V55.536C215.179 57.3707 216.288 58.736 217.696 59.632C219.104 60.4853 220.896 60.912 223.072 60.912C225.163 60.912 226.848 60.272 228.128 58.992C229.408 57.6693 230.048 55.984 230.048 53.936C230.048 52.1867 229.685 50.8427 228.96 49.904C228.235 48.9227 227.061 47.9413 225.44 46.96L223.008 45.552C221.259 44.4853 219.936 43.6533 219.04 43.056C218.187 42.416 217.504 41.712 216.992 40.944C216.48 40.1333 216.224 39.1947 216.224 38.128C216.224 36.4213 216.821 35.056 218.016 34.032C219.211 33.008 220.768 32.496 222.688 32.496C225.035 32.496 226.997 33.0293 228.576 34.096V36.912C227.253 35.1627 225.355 34.288 222.88 34.288C221.515 34.288 220.405 34.6293 219.552 35.312C218.699 35.9947 218.272 36.8693 218.272 37.936C218.272 38.8747 218.528 39.7067 219.04 40.432C219.552 41.1147 220.256 41.7547 221.152 42.352C222.091 42.9493 223.627 43.8453 225.76 45.04C227.936 46.2773 229.536 47.5573 230.56 48.88C231.584 50.16 232.096 51.8453 232.096 53.936C232.096 56.5813 231.221 58.7147 229.472 60.336C227.765 61.9147 225.675 62.704 223.2 62.704Z" fill="black"/>
<path d="M27.968 111.28C23.488 111.28 19.328 110.107 15.488 107.76C11.648 105.413 8.59733 102.299 6.336 98.416C4.11733 94.4907 3.008 90.288 3.008 85.808C3.008 81.3707 4.13867 77.232 6.4 73.392C8.66133 69.5093 11.712 66.4373 15.552 64.176C19.392 61.872 23.552 60.72 28.032 60.72C32.5547 60.72 36.7147 61.8507 40.512 64.112C44.3093 66.3733 47.3173 69.4453 49.536 73.328C51.7973 77.168 52.928 81.328 52.928 85.808C52.928 90.416 51.7973 94.6827 49.536 98.608C47.3173 102.491 44.288 105.584 40.448 107.888C36.6507 110.149 32.4907 111.28 27.968 111.28ZM27.968 109.424C32.064 109.424 35.8613 108.379 39.36 106.288C42.8587 104.155 45.632 101.296 47.68 97.712C49.7707 94.0853 50.816 90.16 50.816 85.936C50.816 81.7547 49.792 77.872 47.744 74.288C45.696 70.704 42.9227 67.8667 39.424 65.776C35.9253 63.6427 32.128 62.576 28.032 62.576C23.8933 62.576 20.0747 63.6427 16.576 65.776C13.0773 67.8667 10.2827 70.704 8.192 74.288C6.144 77.872 5.12 81.7547 5.12 85.936C5.12 90.16 6.144 94.0853 8.192 97.712C10.2827 101.296 13.0773 104.155 16.576 106.288C20.0747 108.379 23.872 109.424 27.968 109.424ZM59.9695 62H62.0175V87.152C62.9135 85.232 64.4282 83.6533 66.5615 82.416C68.7375 81.136 70.9348 80.496 73.1535 80.496C77.2068 80.496 80.3215 81.6053 82.4975 83.824C84.7162 86.0427 85.8255 89.1787 85.8255 93.232V110H83.7775V93.232C83.7775 89.7333 82.8388 87.0453 80.9615 85.168C79.1268 83.248 76.5242 82.288 73.1535 82.288C71.1055 82.288 69.2282 82.7787 67.5215 83.76C65.8148 84.6987 64.4708 86.0213 63.4895 87.728C62.5082 89.392 62.0175 91.2267 62.0175 93.232V110H59.9695V62ZM98.931 81.2H100.979V87.856C101.832 85.7653 103.07 84.1227 104.691 82.928C106.355 81.7333 108.232 81.136 110.323 81.136C111.646 81.136 112.99 81.4133 114.355 81.968V84.336C113.118 83.3973 111.731 82.928 110.195 82.928C108.659 82.928 107.166 83.3973 105.715 84.336C104.307 85.2747 103.155 86.5333 102.259 88.112C101.406 89.6907 100.979 91.376 100.979 93.168V110H98.931V81.2ZM129.607 110.576C127.602 110.576 125.767 110.128 124.103 109.232C122.439 108.293 121.116 106.992 120.135 105.328C119.154 103.664 118.663 101.808 118.663 99.76V62H120.711V99.76C120.711 101.467 121.095 103.003 121.863 104.368C122.674 105.733 123.762 106.821 125.127 107.632C126.492 108.4 127.986 108.784 129.607 108.784V110.576ZM154.498 110.704C151.767 110.704 149.228 110.021 146.882 108.656C144.535 107.291 142.679 105.456 141.314 103.152C139.948 100.805 139.266 98.288 139.266 95.6C139.266 92.912 139.948 90.416 141.314 88.112C142.679 85.7653 144.535 83.9093 146.882 82.544C149.228 81.1787 151.767 80.496 154.498 80.496C157.271 80.496 159.895 81.2427 162.37 82.736C164.844 84.1867 166.572 86.0853 167.554 88.432V81.2H169.602V110H167.554V102.832C166.402 105.221 164.61 107.141 162.178 108.592C159.788 110 157.228 110.704 154.498 110.704ZM154.626 108.912C156.972 108.912 159.148 108.315 161.154 107.12C163.159 105.883 164.738 104.261 165.89 102.256C167.084 100.208 167.682 97.9893 167.682 95.6C167.682 93.2533 167.084 91.056 165.89 89.008C164.695 86.96 163.095 85.3387 161.09 84.144C159.084 82.9067 156.908 82.288 154.562 82.288C152.215 82.288 150.018 82.9067 147.97 84.144C145.964 85.3813 144.343 87.024 143.106 89.072C141.911 91.12 141.314 93.3173 141.314 95.664C141.314 98.0107 141.911 100.208 143.106 102.256C144.343 104.261 145.986 105.883 148.034 107.12C150.082 108.315 152.279 108.912 154.626 108.912ZM182.703 81.2H184.751V87.6C185.69 85.4667 187.29 83.76 189.551 82.48C191.813 81.1573 194.309 80.496 197.039 80.496C200.581 80.496 203.375 81.6267 205.423 83.888C207.514 86.1067 208.559 89.2213 208.559 93.232V110H206.511V93.232C206.511 89.776 205.658 87.088 203.951 85.168C202.287 83.248 199.941 82.288 196.911 82.288C194.693 82.288 192.645 82.8 190.767 83.824C188.933 84.8053 187.461 86.1707 186.351 87.92C185.285 89.6693 184.751 91.6533 184.751 93.872V110H182.703V81.2ZM235.233 110.704C232.46 110.704 229.9 110.021 227.553 108.656C225.249 107.291 223.414 105.456 222.049 103.152C220.684 100.848 220.001 98.3307 220.001 95.6C220.001 92.8693 220.684 90.352 222.049 88.048C223.414 85.744 225.249 83.9093 227.553 82.544C229.9 81.1787 232.46 80.496 235.233 80.496C237.921 80.496 240.481 81.2213 242.913 82.672C245.345 84.08 247.137 85.936 248.289 88.24V62H250.337V110H248.289V103.024C247.009 105.328 245.153 107.184 242.721 108.592C240.332 110 237.836 110.704 235.233 110.704ZM235.169 108.912C237.516 108.912 239.692 108.315 241.697 107.12C243.745 105.883 245.366 104.261 246.561 102.256C247.798 100.208 248.417 98.0107 248.417 95.664C248.417 93.3173 247.798 91.12 246.561 89.072C245.366 87.024 243.745 85.3813 241.697 84.144C239.692 82.9067 237.516 82.288 235.169 82.288C232.822 82.288 230.646 82.9067 228.641 84.144C226.636 85.3387 225.036 86.96 223.841 89.008C222.646 91.056 222.049 93.2533 222.049 95.6C222.049 97.9893 222.625 100.208 223.777 102.256C224.972 104.261 226.572 105.883 228.577 107.12C230.625 108.315 232.822 108.912 235.169 108.912ZM277.455 108.976C279.674 108.976 281.786 108.4 283.791 107.248C285.796 106.096 287.46 104.517 288.783 102.512V105.776C287.204 107.525 285.476 108.805 283.599 109.616C281.722 110.384 279.588 110.768 277.199 110.768C274.554 110.768 272.058 110.064 269.711 108.656C267.407 107.248 265.551 105.371 264.143 103.024C262.778 100.677 262.095 98.1813 262.095 95.536C262.095 92.6773 262.778 90.1173 264.143 87.856C265.508 85.552 267.364 83.76 269.711 82.48C272.1 81.2 274.746 80.56 277.647 80.56C282.084 80.56 285.86 82.3093 288.975 85.808L268.879 105.648C270.287 106.8 271.652 107.653 272.975 108.208C274.298 108.72 275.791 108.976 277.455 108.976ZM264.143 95.344C264.143 98.8853 265.316 101.915 267.663 104.432L286.415 85.808C285.007 84.5707 283.642 83.696 282.319 83.184C280.996 82.6293 279.418 82.352 277.583 82.352C274.98 82.352 272.655 82.928 270.607 84.08C268.602 85.1893 267.023 86.7253 265.871 88.688C264.719 90.6507 264.143 92.8693 264.143 95.344ZM300.4 81.2H302.449V87.856C303.302 85.7653 304.539 84.1227 306.161 82.928C307.825 81.7333 309.702 81.136 311.793 81.136C313.115 81.136 314.459 81.4133 315.825 81.968V84.336C314.587 83.3973 313.201 82.928 311.665 82.928C310.129 82.928 308.635 83.3973 307.185 84.336C305.777 85.2747 304.625 86.5333 303.728 88.112C302.875 89.6907 302.449 91.376 302.449 93.168V110H300.4V81.2Z" fill="black"/>
</svg>
